<?xml version="1.0" encoding="UTF-8" standalone="no"?>
<svg
   width="71.756195pt"
   height="72.333267pt"
   viewBox="0 0 71.756195 72.333267"
   version="1.2"
   id="svg11"
   sodipodi:docname="favicon2.svg"
   inkscape:version="1.2.2 (1:1.2.2+202212051552+b0a8486541)"
   xmlns:inkscape="http://www.inkscape.org/namespaces/inkscape"
   xmlns:sodipodi="http://sodipodi.sourceforge.net/DTD/sodipodi-0.dtd"
   xmlns:xlink="http://www.w3.org/1999/xlink"
   xmlns="http://www.w3.org/2000/svg"
   xmlns:svg="http://www.w3.org/2000/svg">
  <defs
     id="defs15">
    <color-profile
       name="Apple-RGB"
       xlink:href="file:///usr/share/color/icc/colord/AppleRGB.icc"
       id="color-profile2490" />
  </defs>
  <sodipodi:namedview
     id="namedview13"
     pagecolor="#ffffff"
     bordercolor="#000000"
     borderopacity="0.50196078"
     inkscape:showpageshadow="2"
     inkscape:pageopacity="0.0"
     inkscape:pagecheckerboard="true"
     inkscape:deskcolor="#d1d1d1"
     inkscape:document-units="pt"
     showgrid="false"
     inkscape:zoom="11.313709"
     inkscape:cx="61.429899"
     inkscape:cy="45.564191"
     inkscape:window-width="1920"
     inkscape:window-height="1027"
     inkscape:window-x="0"
     inkscape:window-y="25"
     inkscape:window-maximized="1"
     inkscape:current-layer="svg11" />
  <path
     style="fill:#4d1d35;fill-opacity:0.43918326;stroke-width:0.0883883"
     d="m 77.737548,69.596733 c -2.316354,-1.208344 -5.191352,-2.362369 -7.379038,-2.961948 -3.110923,-0.852609 -5.350749,-1.141777 -14.298521,-1.845981 -4.906833,-0.386177 -7.104365,-0.998676 -9.619858,-2.681262 -3.98436,-2.665095 -6.921153,-7.616427 -8.790082,-14.819778 -0.3061,-1.179794 -0.567571,-2.533931 -0.878943,-4.552 -0.477075,-3.092005 -0.858962,-5.277196 -1.204857,-6.894291 -1.241208,-5.802779 -3.448334,-11.159896 -6.038434,-14.656427 -0.312628,-0.422036 -1.12801,-1.324657 -1.811961,-2.005824 -1.713245,-1.706275 -3.398502,-2.94638 -5.651717,-4.158844 l -1.160294,-0.62436 -0.02689,-0.364132 c -0.02873,-0.388978 0.188041,-0.921783 0.483854,-1.189287 0.214556,-0.194025 1.714092,-0.79367 2.686077,-1.074129 0.95192,-0.274669 2.616283,-0.552243 4.104805,-0.684577 1.304559,-0.11598 8.116826,-0.04331 9.899495,0.105595 3.553494,0.296832 7.433526,1.120822 12.462756,2.646677 2.092168,0.634758 10.068485,3.265787 11.449245,3.776593 3.563541,1.318314 5.61693,2.434531 8.560794,4.653625 0.683894,0.515523 1.593251,1.230807 2.020792,1.589522 2.053376,1.722818 5.26427,5.474839 6.787307,7.93116 1.299387,2.095625 2.845499,6.061912 3.353487,8.602797 0.340344,1.702353 0.426493,2.748612 0.374622,4.549643 -0.08024,2.785868 -0.52787,4.869278 -1.966828,9.154161 -1.251106,3.725505 -1.744433,5.856725 -2.12782,9.192388 -0.200115,1.741113 -0.204592,4.954469 -0.0086,6.141699 0.07614,0.461119 0.131227,0.843395 0.122415,0.849503 -0.0088,0.0061 -0.612644,-0.300127 -1.341848,-0.680523 z"
     id="path1529"
     transform="scale(0.75)" />
  <path
     style="fill:#ffffff;fill-opacity:1;fill-rule:nonzero;stroke:none;stroke-width:1.11167"
     d="M 70.911722,64.373587 C 70.775799,61.18057 71.110486,58.415003 69.980679,55.465501 69.56703,48.778721 69.518698,45.514384 70.42334,39.893902 71.817444,34.68588 72.346633,28.768503 70.882942,24.939142 68.329143,19.632753 65.115708,16.099771 61.487768,12.303685 58.141297,8.8181548 50.55971,5.3901876 45.969166,3.9517129 41.006313,2.36155 32.023623,1.2284744 25.161065,0.18789314 20.495212,-0.09780706 15.101386,-0.15481356 10.366023,0.72530504 6.8856452,1.6345299 5.215442,1.8384838 2.4574061,3.9463533 1.40027,5.2058042 -0.98063183,7.380435 0.44044749,9.5583672 2.0768246,11.880504 4.622266,14.162142 10.410444,14.595163 c 7.964649,2.167529 7.469149,8.118234 8.441074,13.409834 0.330632,5.237018 1.800724,10.203323 3.222994,14.601654 1.549251,5.610278 5.566293,11.750379 10.335043,14.226124 5.859161,1.247996 11.335183,1.912122 16.59225,2.977935 4.075392,1.661722 7.096941,3.66062 8.751645,8.420255 1.205183,2.130912 6.68945,2.861236 10.469319,4.102304 2.013155,-3.58461 2.005558,-4.548307 2.688953,-7.959682 z M 53.131145,52.271697 C 49.294269,51.444167 46.843659,51.532172 43.339624,51.205859 40.404967,51.063482 37.562037,50.863781 35.496813,49.82417 29.564502,47.057504 27.223695,39.625781 26.160105,35.197751 25.266411,29.926481 24.649152,25.413032 22.584978,20.587317 20.784208,16.448282 18.940288,13.488614 14.587912,10.828612 13.689018,10.214095 12.829747,9.9188533 12.164302,9.4832663 12.064169,8.8074626 12.437308,8.0967959 12.990048,7.944749 16.021827,6.4389937 20.106656,6.435134 23.514043,6.5453804 31.017442,6.243419 38.816462,9.3100267 44.935758,11.112355 c 4.579113,1.551245 6.143234,2.216647 10.352723,5.497849 2.296775,1.8435 5.768626,5.917002 6.786941,8.220014 3.117859,6.590302 3.20457,10.522781 0.478585,18.26597 -0.684641,1.834167 -2.060153,8.463698 -1.029619,12.4488 -2.945856,-1.648937 -6.266324,-2.832781 -8.393243,-3.273291 z"
     id="path4-3"
     sodipodi:nodetypes="ccccccccccccccccccccccccccccccccc" />
  <path
     style="fill:#e6e6e6;fill-opacity:0.919522;fill-rule:nonzero;stroke:none"
     d="M 53.807644,46.53746 C 53.178086,45.331592 51.481736,42.006654 50.950358,41.229249 47.083309,35.636253 46.327124,32.00477 42.647218,27.255242 39.470049,23.797287 38.018833,19.114322 34.348797,16.435662 31.606173,14.18273 29.209536,13.05824 25.640087,11.707386 24.574109,11.088018 17.409222,9.703296 16.40419,9.4623745 15.019797,9.0256466 14.412771,10.159105 15.585189,10.613599 c 1.474863,0.563531 6.616152,1.638019 9.127795,2.624274 5.066218,2.371198 4.941674,2.14888 8.233719,4.809243 3.084185,2.772019 6.380241,7.559653 8.530217,10.834028 3.168195,5.258899 4.189404,7.936055 6.768271,11.726065 1.621049,2.221588 2.640209,4.45432 4.003481,6.570411 1.295232,1.206738 2.028629,0.372163 1.558972,-0.64016 z"
     id="path6"
     sodipodi:nodetypes="ccccccccccccc" />
  <path
     style="fill:#4d1d35;fill-opacity:1;fill-rule:nonzero;stroke:none"
     d="m 65.936941,68.691007 c 0.678632,-1.134452 1.028612,-1.899449 1.442194,-3.064688 0.312263,-2.245457 0.448023,-2.455081 0.119739,-5.397678 C 67.01856,57.349259 66.578669,55.444685 65.600155,52.7773 64.749777,47.083001 66.145223,43.7139 67.030743,38.670089 68.351241,34.003524 68.516687,29.413037 67.249101,25.94999 65.019895,21.144491 62.361145,18.385537 59.146492,14.924759 56.18104,11.746911 50.34283,8.6672747 46.232225,7.3147596 41.788684,5.8210503 32.818353,4.066637 26.659087,3.0429711 22.466013,2.7263627 17.480864,2.6439667 13.210366,3.3750727 10.068301,4.1483983 6.4714911,4.6201075 4.3385989,6.6486635 3.9590111,7.6125659 4.1853046,8.7396953 4.4020493,9.1270449 5.9680016,10.365828 6.6813945,10.11187 8.2768737,10.404827 c 2.7902943,0.538052 4.6738973,0.86371 7.0680593,2.375463 4.844833,4.228023 6.441368,8.381853 7.450697,14.382962 0.230455,4.71469 1.33637,9.519934 2.559424,13.494214 1.321778,5.065996 4.508243,9.820315 8.765879,12.108087 2.08055,0.904966 4.278005,1.365691 6.417045,1.447601 3.886239,0.0052 8.209388,1.276096 11.128704,1.870946 3.514322,1.331108 6.674868,2.769412 8.102368,7.071639 0.56515,2.263265 1.46083,3.875861 3.521694,4.545642 M 51.895735,49.782536 C 48.455212,48.98917 46.249872,49.037006 43.10232,48.698718 40.464547,48.533148 37.91001,48.317191 36.06572,47.355712 30.765232,44.7914 28.754764,38.076979 27.854706,34.08057 27.118239,29.327875 26.620728,25.260341 24.825772,20.893443 23.258961,17.14755 21.638264,14.461894 17.757493,12.013714 16.956833,11.449495 16.18773,11.172956 15.594759,10.77266 15.513329,10.163525 15.858036,9.5290806 16.357144,9.3993864 19.103338,8.0837753 22.777509,8.1325112 25.840893,8.2752221 32.593724,8.0995208 39.569401,10.957476 45.0504,12.656799 c 4.098883,1.453801 5.497235,2.07229 9.241546,5.077387 2.042286,1.687501 5.112997,5.395807 5.999492,7.480279 2.720145,5.967532 2.747878,9.50573 0.197011,16.435542 -0.639246,1.641 -1.961189,7.586388 -1.085203,11.18398 -2.628591,-1.520795 -5.600073,-2.628048 -7.507511,-3.051451 z"
     id="path4"
     sodipodi:nodetypes="cccccccccccccccccccccccccccccccccccc" />
  <path
     style="fill:#ffffff;fill-opacity:0.948166;fill-rule:nonzero;stroke:none;stroke-width:1.20636"
     d="m 43.003475,44.794752 c 3.415577,-1.965016 5.806693,-3.151734 9.192149,-5.162483 3.601996,-1.591807 5.371586,-3.586569 7.832372,-6.074598 0.494064,-0.637191 1.091285,-2.119905 0.690387,-2.748012 -1.075041,-0.795788 -2.007061,-0.422634 -2.833105,0.442412 -1.572187,1.88661 -2.546877,3.010245 -4.263698,4.473433 -1.148448,0.973206 -2.31446,1.791687 -3.830447,1.835995 -0.944141,0.02853 -2.021703,-2.438306 -2.52256,-3.269547 -1.15554,-1.915206 -1.369447,-1.762426 -1.936198,-3.883469 0.915242,-1.214519 2.353425,-1.779849 3.266184,-2.799015 0.801311,-1.287529 -0.378921,-3.12142 -1.832419,-2.037551 -0.940953,0.64273 -2.572024,2.210279 -3.288173,2.232205 -0.650847,-0.280357 -3.403186,-4.338313 -3.858306,-5.524535 -0.0062,-0.886265 4.474517,-2.953374 5.697325,-5.08913 0.782107,-1.222895 -0.521476,-2.853381 -1.690533,-1.880679 -0.831509,1.047891 -1.561661,1.474445 -2.324801,2.057415 -1.970986,1.521102 -3.860567,3.121683 -5.953379,4.470354 -2.372186,1.226853 -3.788496,2.133993 -6.169129,3.163669 -1.761442,0.921826 -1.162472,1.911647 -0.139838,2.745595 0.542675,0.03266 1.903855,-0.302723 2.34247,-0.448831 0.661418,-0.244287 2.943791,-1.401563 4.752329,-2.830891 0.665441,-0.422236 0.941888,-0.619966 1.632679,0.253003 1.730559,2.473639 3.180244,4.105356 3.239773,4.86029 -0.03536,0.82416 -2.293933,1.322113 -4.00431,2.799214 -0.580906,1.394727 0.497426,2.231895 1.243414,2.251641 1.375521,-0.482399 2.7362,-1.604097 3.832621,-2.354859 0.305083,-0.287988 0.921571,-0.116543 1.249891,0.51585 1.26334,2.195454 2.690801,4.311643 3.610196,6.032663 0.177079,0.57961 -0.332524,1.114139 -0.529598,1.442366 -2.038342,1.14994 -4.31324,1.978766 -5.904111,2.839136 -1.131871,0.342897 -1.581064,1.096105 -2.104088,2.032728 0.136673,0.974481 0.897842,1.143219 1.714666,1.116017"
     id="path8"
     sodipodi:nodetypes="cccccccccccccccccccccccccccccccc" />
  <path
     style="fill:#ffffff;fill-opacity:0.516165;stroke-width:0.0883883"
     d=""
     id="path415"
     transform="scale(0.75)" />
</svg>
