<?xml version="1.0" encoding="UTF-8" standalone="no"?>
<svg
   width="71.756195pt"
   height="72.333267pt"
   viewBox="0 0 71.756195 72.333267"
   version="1.2"
   id="svg11"
   sodipodi:docname="favicon.svg"
   inkscape:version="1.2.2 (1:1.2.2+202212051552+b0a8486541)"
   xmlns:inkscape="http://www.inkscape.org/namespaces/inkscape"
   xmlns:sodipodi="http://sodipodi.sourceforge.net/DTD/sodipodi-0.dtd"
   xmlns:xlink="http://www.w3.org/1999/xlink"
   xmlns="http://www.w3.org/2000/svg"
   xmlns:svg="http://www.w3.org/2000/svg">
  <defs
     id="defs15">
    <color-profile
       name="Apple-RGB"
       xlink:href="file:///usr/share/color/icc/colord/AppleRGB.icc"
       id="color-profile415" />
  </defs>
  <sodipodi:namedview
     id="namedview13"
     pagecolor="#ffffff"
     bordercolor="#000000"
     borderopacity="0.50196078"
     inkscape:showpageshadow="2"
     inkscape:pageopacity="0.0"
     inkscape:pagecheckerboard="true"
     inkscape:deskcolor="#d1d1d1"
     inkscape:document-units="pt"
     showgrid="false"
     inkscape:zoom="11.313709"
     inkscape:cx="49.409085"
     inkscape:cy="22.318057"
     inkscape:window-width="1920"
     inkscape:window-height="1027"
     inkscape:window-x="0"
     inkscape:window-y="25"
     inkscape:window-maximized="1"
     inkscape:current-layer="svg11" />
  <path
     style="fill:#ffffff;fill-opacity:1;fill-rule:nonzero;stroke:none;stroke-width:1.11167"
     d="M 70.911722,64.373587 C 70.775799,61.18057 71.110486,58.415003 69.980679,55.465501 69.56703,48.778721 69.518698,45.514384 70.42334,39.893902 71.817444,34.68588 72.346633,28.768503 70.882942,24.939142 68.329143,19.632753 65.115708,16.099771 61.487768,12.303685 58.141297,8.8181548 50.55971,5.3901876 45.969166,3.9517129 41.006313,2.36155 32.023623,1.2284744 25.161065,0.18789314 20.495212,-0.09780706 15.101386,-0.15481356 10.366023,0.72530504 6.8856452,1.6345299 5.215442,1.8384838 2.4574061,3.9463533 1.40027,5.2058042 -0.98063183,7.380435 0.44044749,9.5583672 2.0768246,11.880504 4.622266,14.162142 10.410444,14.595163 c 7.964649,2.167529 7.469149,8.118234 8.441074,13.409834 0.330632,5.237018 1.800724,10.203323 3.222994,14.601654 1.549251,5.610278 5.566293,11.750379 10.335043,14.226124 5.859161,1.247996 11.335183,1.912122 16.59225,2.977935 4.075392,1.661722 7.096941,3.66062 8.751645,8.420255 1.205183,2.130912 6.68945,2.861236 10.469319,4.102304 2.013155,-3.58461 2.005558,-4.548307 2.688953,-7.959682 z M 53.131145,52.271697 C 49.294269,51.444167 46.843659,51.532172 43.339624,51.205859 40.404967,51.063482 37.562037,50.863781 35.496813,49.82417 29.564502,47.057504 27.223695,39.625781 26.160105,35.197751 25.266411,29.926481 24.649152,25.413032 22.584978,20.587317 20.784208,16.448282 18.940288,13.488614 14.587912,10.828612 13.689018,10.214095 12.829747,9.9188533 12.164302,9.4832663 12.064169,8.8074626 12.437308,8.0967959 12.990048,7.944749 16.021827,6.4389937 20.106656,6.435134 23.514043,6.5453804 31.017442,6.243419 38.816462,9.3100267 44.935758,11.112355 c 4.579113,1.551245 6.143234,2.216647 10.352723,5.497849 2.296775,1.8435 5.768626,5.917002 6.786941,8.220014 3.117859,6.590302 3.20457,10.522781 0.478585,18.26597 -0.684641,1.834167 -2.060153,8.463698 -1.029619,12.4488 -2.945856,-1.648937 -6.266324,-2.832781 -8.393243,-3.273291 z"
     id="path4-3"
     sodipodi:nodetypes="ccccccccccccccccccccccccccccccccc" />
  <path
     style="fill:#4d1d35;fill-opacity:1;fill-rule:nonzero;stroke:none"
     d="m 65.936941,68.691007 c 0.678632,-1.134452 1.028612,-1.899449 1.442194,-3.064688 0.312263,-2.245457 0.448023,-2.455081 0.119739,-5.397678 C 67.01856,57.349259 66.578669,55.444685 65.600155,52.7773 64.749777,47.083001 66.145223,43.7139 67.030743,38.670089 68.351241,34.003524 68.516687,29.413037 67.249101,25.94999 65.019895,21.144491 62.361145,18.385537 59.146492,14.924759 56.18104,11.746911 50.34283,8.6672747 46.232225,7.3147596 41.788684,5.8210503 32.818353,4.066637 26.659087,3.0429711 22.466013,2.7263627 17.480864,2.6439667 13.210366,3.3750727 10.068301,4.1483983 6.4714911,4.6201075 4.3385989,6.6486635 3.9590111,7.6125659 4.1853046,8.7396953 4.4020493,9.1270449 5.9680016,10.365828 6.6813945,10.11187 8.2768737,10.404827 c 2.7902943,0.538052 4.6738973,0.86371 7.0680593,2.375463 4.844833,4.228023 6.441368,8.381853 7.450697,14.382962 0.230455,4.71469 1.33637,9.519934 2.559424,13.494214 1.321778,5.065996 4.508243,9.820315 8.765879,12.108087 2.08055,0.904966 4.278005,1.365691 6.417045,1.447601 3.886239,0.0052 8.209388,1.276096 11.128704,1.870946 3.514322,1.331108 6.674868,2.769412 8.102368,7.071639 0.56515,2.263265 1.46083,3.875861 3.521694,4.545642 M 51.895735,49.782536 C 48.455212,48.98917 46.249872,49.037006 43.10232,48.698718 40.464547,48.533148 37.91001,48.317191 36.06572,47.355712 30.765232,44.7914 28.754764,38.076979 27.854706,34.08057 27.118239,29.327875 26.620728,25.260341 24.825772,20.893443 23.258961,17.14755 21.638264,14.461894 17.757493,12.013714 16.956833,11.449495 16.18773,11.172956 15.594759,10.77266 15.513329,10.163525 15.858036,9.5290806 16.357144,9.3993864 19.103338,8.0837753 22.777509,8.1325112 25.840893,8.2752221 32.593724,8.0995208 39.569401,10.957476 45.0504,12.656799 c 4.098883,1.453801 5.497235,2.07229 9.241546,5.077387 2.042286,1.687501 5.112997,5.395807 5.999492,7.480279 2.720145,5.967532 2.747878,9.50573 0.197011,16.435542 -0.639246,1.641 -1.961189,7.586388 -1.085203,11.18398 -2.628591,-1.520795 -5.600073,-2.628048 -7.507511,-3.051451 z"
     id="path4"
     sodipodi:nodetypes="cccccccccccccccccccccccccccccccccccc" />
  <path
     style="fill:#4d1d35;fill-opacity:0.919522;fill-rule:nonzero;stroke:none"
     d="M 54.679709,44.162939 C 53.980147,42.996289 53.231578,42.362738 52.655287,41.618017 50.857002,39.253133 49.46052,37.124727 47.662226,34.759848 46.559327,33.305471 45.316335,31.95808 44.199221,30.510201 43.098646,29.089122 42.213982,27.49204 41.009166,26.152971 37.924754,23.183541 35.496047,20.02174 31.971711,18.087855 29.822601,16.609201 27.75678,15.060818 25.524849,13.701629 23.046686,12.541545 22.213599,11.930488 19.84537,10.891834 18.744728,10.336396 16.172809,9.5389682 15.15532,9.3577247 13.747585,9.0033825 13.208446,10.17066 14.405622,10.555236 c 1.505524,0.47559 3.122573,1.063607 4.391297,1.591837 2.167124,1.132602 4.379309,1.928916 6.392438,3.103837 2.099569,1.445466 4.160468,2.947269 6.206853,4.464293 3.242262,2.585348 6.368241,5.020221 8.824857,7.983493 1.810568,2.21323 3.367787,4.623875 5.137048,6.868885 1.086259,1.380377 2.356142,2.608096 3.419161,4.003395 1.749217,2.122144 3.135809,4.636407 4.621477,6.668436 1.36413,1.12827 1.809485,-0.0936 1.280956,-1.076473 z"
     id="path6"
     sodipodi:nodetypes="cccccccccccccccccc" />
  <path
     style="fill:#4d1d35;fill-opacity:0.948166;fill-rule:nonzero;stroke:none"
     d="m 43.071042,42.596682 c 2.678733,-1.976109 5.378883,-3.914773 8.029092,-5.925091 1.030589,-0.780337 2.093557,-1.536816 3.014933,-2.443331 1.304966,-1.279421 2.493298,-2.67304 3.644083,-4.092443 0.155411,-0.195594 0.248593,-0.461536 0.241598,-0.711746 -0.0047,-0.216899 -0.106707,-0.449438 -0.271202,-0.593293 -0.21732,-0.184128 -0.515234,-0.262706 -0.799843,-0.321583 -0.161415,-0.03364 -0.33395,0.0023 -0.489654,0.05633 -0.205131,0.06804 -0.433234,0.142182 -0.577047,0.306768 -0.439221,0.514303 -0.723651,1.151135 -1.13404,1.690917 -0.840783,1.101609 -1.659541,2.22321 -2.615628,3.222888 -0.876407,0.920318 -1.495126,2.152164 -2.748405,2.351382 -0.780455,0.124834 -2.407127,-2.320177 -2.886924,-2.946983 -1.10676,-1.444013 -1.313838,-1.352812 -1.948495,-3.028655 0.251932,-0.73323 0.622001,-0.806659 1.144083,-1.325555 0.310501,-0.239561 1.213147,-1.135215 1.194174,-1.242508 0.201356,-0.403186 0.01399,-0.60236 -0.139861,-0.751078 -0.390484,-0.303097 -0.620096,-0.123606 -0.952314,0.06344 -0.418435,0.31912 -0.777335,0.744306 -0.860642,0.825159 -0.53037,0.521619 -0.646862,0.802571 -1.313358,1.007608 -0.824105,-0.02701 -1.553105,-1.650403 -2.173997,-2.191228 -1.102462,-1.234026 -1.990702,-1.737182 -2.626587,-2.726043 -0.304932,-0.674297 1.974012,-2.260551 2.859618,-3.132915 0.641016,-0.636619 1.29833,-1.16963 1.813683,-1.912008 0.253545,-0.381502 0.305915,-0.800131 0.09616,-1.104834 -0.221367,-0.325997 -0.57705,-0.328881 -0.893331,-0.197241 -0.345579,0.101991 -0.737525,0.953684 -0.871244,1.185067 -0.513022,0.625357 -0.685266,0.690391 -1.265975,1.252196 -1.515696,1.457355 -3.045289,2.912476 -4.675375,4.241733 -1.87115,1.25954 -3.145878,2.729177 -4.979388,3.517297 -0.349651,0.07829 -0.561901,-0.09795 -0.931207,0.155078 -0.115704,0.160314 -0.380422,0.257812 -0.174549,0.676293 0.183536,0.3967 0.423633,0.537641 0.75098,0.559762 0.452403,-0.03157 1.158559,-0.492639 1.510806,-0.659418 0.529318,-0.271117 2.713197,-1.684161 4.10136,-3.04891 0.518821,-0.417258 0.987494,-0.869704 1.627986,-0.229139 1.626831,1.83947 3.459157,3.385595 4.256578,5.162872 -0.06258,0.496071 -0.988365,1.023042 -1.52696,1.47969 -0.56214,0.480309 -1.085627,0.746046 -1.64259,1.228276 -0.202882,0.199119 -0.09536,0.525276 -0.06708,0.678534 0.16031,0.115696 0.390502,0.388839 0.583767,0.360628 0.585023,-0.106054 1.189744,-0.805979 1.870149,-1.238156 0.376394,-0.266503 0.679395,-0.499788 1.010414,-0.818603 0.230529,-0.2686 0.554762,-0.460753 0.876077,0.02181 0.487785,0.441126 0.839861,0.940184 1.209073,1.487482 1.023833,1.516292 1.454385,2.006193 2.485317,3.519229 0.05804,0.08944 0.386221,0.527142 0.248362,0.817081 -0.12521,0.350928 -0.832178,0.798622 -1.040359,0.953917 -1.574764,1.196589 -2.329022,1.620398 -3.945297,2.754366 -0.347062,0.288865 -0.888804,0.357356 -1.422684,0.57522 -0.23073,0.19992 -0.46804,0.488829 -0.459631,0.798515 0.0065,0.314871 0.214493,0.666473 0.497962,0.807477 0.194177,0.09593 0.572765,0.08404 0.745155,-0.04621"
     id="path8"
     sodipodi:nodetypes="ccccccccccccccccccccccccccccccccccccccccccccccccccccc" />
  <path
     style="fill:#1d6e78;fill-opacity:0.407458;stroke-width:0.1875"
     d="M 58.223651,52.078236 C 54.813718,50.225343 51.22586,49.299101 45.617536,48.823828 37.841653,48.164868 36.454612,47.820481 34.23108,45.996712 32.439275,44.527038 31.624221,43.476481 30.389443,41.045061 28.990498,38.290366 28.240058,35.744028 27.524781,31.324938 26.491271,24.939765 25.397044,21.319203 23.479742,17.940817 c -1.181688,-2.082183 -2.315209,-3.443912 -3.973305,-4.773211 -0.617245,-0.494841 -1.107604,-0.939049 -1.089686,-0.987129 0.02995,-0.08043 2.950443,1.269043 5.596374,2.585955 2.086241,1.038343 11.883563,8.370485 11.944648,8.939159 0.02346,0.218366 -2.118853,1.965826 -3.893116,3.17558 -0.781511,0.532861 -1.163,0.707793 -1.497751,0.686786 -0.688877,-0.04321 -1.060064,0.405306 -0.802229,0.969355 0.35879,0.784905 0.763034,0.770138 2.306901,-0.08428 1.123962,-0.62203 3.388796,-2.286091 4.579159,-3.364483 0.1396,-0.12647 0.428416,-0.164895 0.64182,-0.08538 0.494077,0.184082 3.482012,3.426174 4.175321,4.530485 0.616993,0.982747 0.658681,0.913315 -1.496964,2.493161 -0.972582,0.712791 -1.33695,1.081011 -1.307618,1.321433 0.0511,0.418715 0.408114,0.778069 0.75174,0.756613 0.253212,-0.01581 2.810362,-1.84796 3.022143,-2.165313 0.05706,-0.08552 0.249836,-0.08504 0.428373,0.0011 0.389531,0.18784 4.156558,5.379524 4.119227,5.677081 -0.04465,0.355852 -0.636057,0.850412 -2.934747,2.454173 -1.222259,0.852748 -2.521163,1.642909 -2.886469,1.755918 -1.179906,0.365011 -1.40858,1.596633 -0.368404,1.984182 0.481781,0.1795 0.508296,0.163232 4.707985,-2.888582 1.649332,-1.198528 3.05523,-2.204944 3.124219,-2.23648 0.14263,-0.0652 1.329931,1.564133 3.321757,4.558429 0.750535,1.128277 1.558687,2.173638 1.7959,2.323021 0.596047,0.375351 1.221507,0.05458 1.220671,-0.626027 -7.3e-4,-0.593316 -0.358227,-1.184615 -1.601182,-2.648335 -1.139333,-1.341681 -3.342508,-4.435363 -3.279361,-4.604844 0.02871,-0.077 0.888727,-0.794 1.91121,-1.593362 1.924838,-1.504811 3.751023,-3.304763 5.280602,-5.204744 1.047604,-1.30129 1.080559,-1.916674 0.123602,-2.307641 -0.859812,-0.351275 -1.456621,0.02185 -2.567468,1.6052 -1.482413,2.112957 -4.348637,5.3805 -4.968901,5.664633 -0.384842,0.176329 -0.680027,0.170151 -0.982712,-0.02046 -0.461899,-0.290881 -3.811972,-4.482366 -4.11848,-5.152894 -0.238843,-0.522502 -0.06219,-0.854762 0.900288,-1.693289 1.492221,-1.300058 1.776755,-2.005631 0.935226,-2.319163 -0.424411,-0.158125 -0.809566,0.06049 -1.828733,1.038006 -0.492418,0.472294 -1.04307,0.867942 -1.223675,0.879217 -0.180605,0.01127 -0.559508,-0.272903 -0.842007,-0.631509 -0.664704,-0.84376 -1.868597,-2.169258 -2.992752,-3.295025 -0.881452,-0.882723 -0.890069,-0.899264 -0.672478,-1.29182 0.121235,-0.21871 0.980254,-1.079342 1.908932,-1.912516 2.449764,-2.197827 3.1196,-3.119711 2.790264,-3.84018 -0.03838,-0.08396 -0.317478,-0.190412 -0.620224,-0.236564 -0.522825,-0.07971 -0.579031,-0.04317 -1.120464,0.728289 -0.514865,0.733608 -4.242567,4.410577 -4.406465,4.346497 -0.03736,-0.01462 -0.664756,-0.595856 -1.394169,-1.291649 -1.387357,-1.323462 -1.595259,-1.476517 -6.938499,-5.108082 -3.536889,-2.403866 -7.22259,-4.385584 -10.703487,-5.755026 L 16.400838,9.4497138 17.529763,9.0634307 C 20.83809,7.9314231 29.420409,8.159008 34.573,9.5153781 c 4.71682,1.2416579 13.526175,4.2846059 15.311195,5.2888269 2.945946,1.657335 5.599266,3.934079 7.845061,6.731635 1.718225,2.140361 2.815083,4.142553 3.602921,6.576716 1.361361,4.206183 1.20762,7.046861 -0.687888,12.710061 -1.222335,3.651971 -1.793278,7.398632 -1.565359,10.27225 l 0.120033,1.513333 z"
     id="path454" />
</svg>
